<svg xmlns="http://www.w3.org/2000/svg" viewBox="0 0 400 600">
  <!-- Fondo del teléfono -->
  <rect x="50" y="20" width="300" height="560" rx="20" ry="20" fill="#f0f0f0" stroke="#333" stroke-width="2"/>
  
  <!-- Pantalla -->
  <rect x="70" y="60" width="260" height="480" fill="#fff" stroke="#ddd"/>
  
  <!-- Título -->
  <rect x="80" y="80" width="240" height="40" fill="#3F51B5"/>
  <text x="100" y="105" font-family="Arial" font-size="14" fill="white">Base de Datos Clave-Valor</text>
  
  <!-- TextBox Clave -->
  <rect x="80" y="140" width="115" height="40" fill="#f9f9f9" stroke="#ccc"/>
  <text x="90" y="165" font-family="Arial" font-size="11" fill="#999">Introducir clave</text>
  
  <!-- TextBox Valor -->
  <rect x="205" y="140" width="115" height="40" fill="#f9f9f9" stroke="#ccc"/>
  <text x="215" y="165" font-family="Arial" font-size="11" fill="#999">Introducir valor</text>
  
  <!-- Botones -->
  <rect x="80" y="190" width="75" height="35" rx="5" ry="5" fill="#4CAF50"/>
  <text x="95" y="212" font-family="Arial" font-size="11" fill="white">Guardar</text>
  
  <rect x="165" y="190" width="75" height="35" rx="5" ry="5" fill="#2196F3"/>
  <text x="180" y="212" font-family="Arial" font-size="11" fill="white">Obtener</text>
  
  <rect x="250" y="190" width="75" height="35" rx="5" ry="5" fill="#F44336"/>
  <text x="265" y="212" font-family="Arial" font-size="11" fill="white">Eliminar</text>
  
  <!-- Botón Listar Todos -->
  <rect x="80" y="235" width="240" height="35" rx="5" ry="5" fill="#9C27B0"/>
  <text x="160" y="257" font-family="Arial" font-size="11" fill="white">Listar Todos</text>
  
  <!-- ListView -->
  <rect x="80" y="280" width="240" height="240" fill="#f5f5f5" stroke="#ddd"/>
  <text x="95" y="310" font-family="Arial" font-size="12" fill="#666">clave1 : valor1</text>
  <line x1="80" y1="320" x2="320" y2="320" stroke="#eee" stroke-width="1"/>
  <text x="95" y="340" font-family="Arial" font-size="12" fill="#666">clave2 : valor2</text>
  <line x1="80" y1="350" x2="320" y2="350" stroke="#eee" stroke-width="1"/>
  <text x="95" y="370" font-family="Arial" font-size="12" fill="#666">clave3 : valor3</text>
  
  <!-- Componentes no visibles (indicados) -->
  <rect x="120" y="540" width="160" height="20" rx="3" ry="3" fill="#ddd"/>
  <text x="140" y="554" font-family="Arial" font-size="10" fill="#555">Componente Web (no visible)</text>
</svg>
